<svg width="70" height="70" viewBox="0 0 70 70" fill="none" xmlns="http://www.w3.org/2000/svg">
<circle cx="35" cy="35" r="35" fill="#45F882"/>
<path d="M35.0833 22.5416V18.3611M35.0833 22.5416C32.7744 22.5416 30.9028 24.4133 30.9028 26.7222C30.9028 29.0311 32.7744 30.9028 35.0833 30.9028M35.0833 22.5416C37.3922 22.5416 39.2639 24.4133 39.2639 26.7222C39.2639 29.0311 37.3922 30.9028 35.0833 30.9028M22.5416 47.625C24.8505 47.625 26.7222 45.7533 26.7222 43.4444C26.7222 41.1356 24.8505 39.2639 22.5416 39.2639M22.5416 47.625C20.2328 47.625 18.3611 45.7533 18.3611 43.4444C18.3611 41.1356 20.2328 39.2639 22.5416 39.2639M22.5416 47.625V51.8055M22.5416 39.2639V18.3611M35.0833 30.9028V51.8055M47.625 47.625C49.9338 47.625 51.8055 45.7533 51.8055 43.4444C51.8055 41.1356 49.9338 39.2639 47.625 39.2639M47.625 47.625C45.3161 47.625 43.4444 45.7533 43.4444 43.4444C43.4444 41.1356 45.3161 39.2639 47.625 39.2639M47.625 47.625V51.8055M47.625 39.2639V18.3611" stroke="black" stroke-width="3" stroke-linecap="round" stroke-linejoin="round"/>
</svg>
