<svg width="70" height="70" viewBox="0 0 70 70" fill="none" xmlns="http://www.w3.org/2000/svg">
<circle cx="35" cy="35" r="35" fill="#45F882"/>
<path d="M31.5813 19.0243C32.4726 15.3529 37.694 15.3529 38.5853 19.0243C39.161 21.396 41.8782 22.5215 43.9624 21.2516C47.1887 19.2857 50.8808 22.9778 48.9149 26.2041C47.645 28.2883 48.7705 31.0055 51.1422 31.5813C54.8136 32.4726 54.8136 37.694 51.1422 38.5853C48.7705 39.161 47.645 41.8782 48.9149 43.9624C50.8808 47.1887 47.1887 50.8808 43.9624 48.9149C41.8782 47.645 39.161 48.7705 38.5853 51.1422C37.694 54.8136 32.4726 54.8136 31.5813 51.1422C31.0055 48.7705 28.2883 47.645 26.2041 48.9149C22.9778 50.8808 19.2857 47.1887 21.2516 43.9624C22.5215 41.8782 21.396 39.161 19.0243 38.5853C15.3529 37.694 15.3529 32.4726 19.0243 31.5813C21.396 31.0055 22.5215 28.2883 21.2516 26.2041C19.2857 22.9778 22.9778 19.2857 26.2041 21.2516C28.2883 22.5215 31.0055 21.396 31.5813 19.0243Z" stroke="black" stroke-width="3" stroke-linecap="round" stroke-linejoin="round"/>
<path d="M41.3541 35.0833C41.3541 38.5465 38.5465 41.3541 35.0833 41.3541C31.62 41.3541 28.8124 38.5465 28.8124 35.0833C28.8124 31.62 31.62 28.8124 35.0833 28.8124C38.5465 28.8124 41.3541 31.62 41.3541 35.0833Z" stroke="black" stroke-width="3" stroke-linecap="round" stroke-linejoin="round"/>
</svg>
