<svg width="70" height="70" viewBox="0 0 70 70" fill="none" xmlns="http://www.w3.org/2000/svg">
<circle cx="35" cy="35" r="35" fill="#45F882"/>
<path d="M38.9886 56.1744L38.9887 56.1745C39.5826 55.5664 39.8938 54.7366 39.8462 53.8879L39.8454 53.8739H40.0958L39.8458 53.8739V53.8739V53.8738V53.8738V53.8738V53.8737V53.8737V53.8737V53.8736V53.8736V53.8736V53.8735V53.8735V53.8735V53.8734V53.8734V53.8733V53.8733V53.8733V53.8732V53.8732V53.8732V53.8731V53.8731V53.8731V53.8731V53.873V53.873V53.873V53.8729V53.8729V53.8729V53.8728V53.8728V53.8728V53.8727V53.8727V53.8727V53.8726V53.8726V53.8726V53.8725V53.8725V53.8725V53.8724V53.8724V53.8724V53.8723V53.8723V53.8723V53.8722V53.8722V53.8722V53.8721V53.8721V53.8721V53.872V53.872V53.872V53.8719V53.8719V53.8719V53.8718V53.8718V53.8718V53.8717V53.8717V53.8717V53.8716V53.8716V53.8716V53.8715V53.8715V53.8715V53.8714V53.8714V53.8714V53.8713V53.8713V53.8713V53.8712V53.8712V53.8712V53.8711V53.8711V53.8711V53.871V53.871L38.9886 56.1744ZM38.9886 56.1744L38.9838 56.1797M38.9886 56.1744L38.9838 56.1797M38.9838 56.1797C38.3456 56.8717 37.4491 57.2682 36.5079 57.275M38.9838 56.1797L36.5079 57.275M36.5079 57.275C34.6305 57.2437 33.1072 55.7462 33.0438 53.8698C33.0452 51.9933 34.5664 50.4722 36.4434 50.4714C38.3217 50.4707 39.845 51.9927 39.8458 53.8709L36.5079 57.275ZM16.8256 48.864H16.8284L22.5267 47.3843L22.7765 47.3729C22.7765 47.3728 22.7765 47.3727 22.7765 47.3725C22.7754 47.3489 22.7737 47.3253 22.7714 47.3017V32.1535C22.7714 31.7374 22.6509 31.315 22.4251 30.9898C22.1975 30.6621 21.8495 30.4183 21.4076 30.4183H20.2962V27.6361C20.2962 19.4011 26.9721 12.7251 35.2071 12.7251C43.4421 12.7251 50.1181 19.4011 50.1181 27.6361V30.4183H49.0067C48.5647 30.4183 48.2167 30.6621 47.9891 30.9898C47.7633 31.3149 47.6428 31.7373 47.6428 32.1535V47.3017C47.5672 48.079 48.1319 48.7739 48.9102 48.8571C48.9385 48.8602 48.9669 48.8623 48.9952 48.8636L48.9952 48.8639H49.0067H49.94C48.167 51.0856 45.4923 52.401 42.6478 52.4469C41.8566 49.1116 38.5532 46.9846 35.1703 47.6746C32.2196 48.2763 30.0922 50.8605 30.0684 53.8718L30.0684 53.8763C30.1037 57.4068 32.9759 60.2502 36.5066 60.25L36.5106 60.25C38.2564 60.2217 39.9205 59.5053 41.1408 58.2564L41.1409 58.2563C41.9196 57.4588 42.4461 56.4516 42.6575 55.3603C46.5251 55.3098 50.1567 53.4708 52.4861 50.373L52.4863 50.3732L52.4931 50.3631L53.6015 48.7298C54.9255 48.6143 56.0249 48.1369 56.8016 47.3682C57.6036 46.5744 58.0437 45.4873 58.0437 44.2202V36.485C58.0438 35.0979 57.5296 33.5911 56.6471 32.4279C55.7882 31.2957 54.5605 30.4656 53.0933 30.4204V27.6362C53.0933 17.7579 45.0855 9.75 35.2071 9.75C25.3287 9.75 17.3209 17.7579 17.3209 27.6362V30.4184H16.8284C13.9459 30.4184 11.7516 32.9662 11.7516 35.8665V43.5985C11.6813 46.4341 13.9222 48.7907 16.7582 48.8627L16.7645 48.6128L16.7576 48.8627C16.7807 48.8634 16.8033 48.8637 16.8256 48.864ZM14.7266 43.6136L14.7269 43.6136V43.6015V35.8664C14.7269 34.5358 15.6464 33.3936 16.8284 33.3936H19.7962V45.8887H16.8315C15.6384 45.8581 14.6952 44.867 14.7243 43.6735L14.4744 43.6674L14.7243 43.6741C14.7248 43.654 14.7256 43.6339 14.7266 43.6136ZM55.0686 44.2204C55.0686 44.9544 54.7254 45.3549 54.3013 45.5868C53.8589 45.8287 53.3192 45.8887 52.9671 45.8887H50.6181V33.3937H52.9671C53.523 33.3937 54.0445 33.7886 54.4424 34.4148C54.8362 35.0348 55.0686 35.8241 55.0686 36.4852V44.2204Z" fill="black" stroke="white" stroke-width="0.5"/>
</svg>
