<svg width="107" height="74" viewBox="0 0 107 74" fill="none" xmlns="http://www.w3.org/2000/svg">
<path d="M95.3283 58.1185V8.52298C95.3283 8.11091 95.1646 7.7157 94.8732 7.42432C94.5818 7.13294 94.1866 6.96924 93.7746 6.96924H13.7788C13.3668 6.96924 12.9716 7.13294 12.6802 7.42432C12.3888 7.7157 12.2251 8.11091 12.2251 8.52298V58.1185C12.2251 58.5306 12.3888 58.9258 12.6802 59.2172C12.9716 59.5086 13.3668 59.6723 13.7788 59.6723H93.7746C94.1866 59.6723 94.5818 59.5086 94.8732 59.2172C95.1646 58.9258 95.3283 58.5306 95.3283 58.1185ZM92.2208 56.5648H15.3326V10.0732H92.2208V56.5648Z" fill="#45F882" stroke="#0B0F13" stroke-width="0.845611"/>
<path d="M105 62.5328H101.299V6.55087C101.298 5.07912 100.713 3.66805 99.6718 2.62737C98.6311 1.58669 97.2201 1.00141 95.7483 1H11.8052C10.3334 1.00141 8.92238 1.58669 7.88169 2.62737C6.84101 3.66805 6.25574 5.07912 6.25433 6.55087V62.5328H2.55375C2.14174 62.533 1.74667 62.6968 1.45534 62.9881C1.16401 63.2795 1.00024 63.6745 1 64.0865V67.9318C1.00164 69.403 1.58681 70.8135 2.62711 71.8538C3.66741 72.8941 5.07789 73.4793 6.54909 73.4809H101.004C102.476 73.4795 103.886 72.8944 104.927 71.8541C105.967 70.8137 106.552 69.4031 106.554 67.9318V64.0865C106.554 63.6744 106.39 63.2792 106.098 62.9879C105.807 62.6965 105.412 62.5328 105 62.5328ZM9.36182 6.55087C9.36229 5.90299 9.61987 5.28178 10.078 4.82366C10.5361 4.36554 11.1573 4.10796 11.8052 4.10749H95.7483C96.3962 4.10796 97.0174 4.36554 97.4755 4.82366C97.9337 5.28178 98.1912 5.90299 98.1917 6.55087V62.5328H65.4467C65.0346 62.5328 64.6394 62.6965 64.3481 62.9879C64.0567 63.2792 63.893 63.6744 63.893 64.0865V64.9167H43.6605V64.0865C43.6603 63.6745 43.4965 63.2795 43.2052 62.9881C42.9139 62.6968 42.5188 62.533 42.1068 62.5328H9.36182V6.55087ZM103.446 67.9318C103.445 68.5792 103.188 69.1998 102.73 69.6575C102.272 70.1152 101.652 70.3727 101.004 70.3734H6.54909C5.90183 70.3725 5.28134 70.1149 4.82366 69.6573C4.36597 69.1996 4.10843 68.5791 4.10749 67.9318V65.6403H40.553V66.4704C40.553 66.8825 40.7167 67.2777 41.0081 67.5691C41.2995 67.8605 41.6947 68.0242 42.1068 68.0242H65.4467C65.8588 68.0242 66.254 67.8605 66.5454 67.5691C66.8368 67.2777 67.0005 66.8825 67.0005 66.4704V65.6403H103.446V67.9318Z" fill="#45F882" stroke="#0B0F13" stroke-width="0.845611"/>
</svg>
