<svg width="87" height="73" viewBox="0 0 87 73" fill="none" xmlns="http://www.w3.org/2000/svg">
<path d="M81.541 0H4.87852C3.5851 0.00142963 2.34506 0.515874 1.43047 1.43047C0.515875 2.34506 0.00142963 3.5851 0 4.87852V56.4515C0.00142963 57.7449 0.515875 58.9849 1.43047 59.8995C2.34506 60.8141 3.5851 61.3286 4.87852 61.33H33.1461L32.3098 65.5116H26.4834C26.1137 65.5116 25.7592 65.6584 25.4978 65.9199C25.2364 66.1813 25.0895 66.5358 25.0895 66.9055V71.0871C25.0895 71.4567 25.2364 71.8113 25.4978 72.0727C25.7592 72.3341 26.1137 72.4809 26.4834 72.4809H59.9361C60.3058 72.4809 60.6604 72.3341 60.9218 72.0727C61.1832 71.8113 61.33 71.4567 61.33 71.0871V66.9055C61.33 66.5358 61.1832 66.1813 60.9218 65.9199C60.6604 65.6584 60.3058 65.5116 59.9361 65.5116H54.1098L53.2735 61.33H81.541C82.8345 61.3286 84.0745 60.8141 84.9891 59.8995C85.9037 58.9849 86.4181 57.7449 86.4196 56.4515V4.87852C86.4181 3.5851 85.9037 2.34506 84.9891 1.43047C84.0745 0.515874 82.8345 0.00142963 81.541 0ZM58.5423 68.2993V69.6932H27.8773V68.2993H58.5423ZM35.1532 65.5116L35.9896 61.33H50.43L51.2663 65.5116H35.1532ZM83.6318 56.4515C83.6314 57.0059 83.4109 57.5374 83.0189 57.9294C82.6269 58.3214 82.0954 58.5418 81.541 58.5423H4.87852C4.32415 58.5418 3.79262 58.3214 3.40062 57.9294C3.00862 57.5374 2.78819 57.0059 2.78773 56.4515V52.9668H83.6318V56.4515ZM83.6318 50.1791H2.78773V4.87852C2.78819 4.32415 3.00862 3.79262 3.40062 3.40062C3.79262 3.00862 4.32415 2.78819 4.87852 2.78773H81.541C82.0954 2.78819 82.6269 3.00862 83.0189 3.40062C83.4109 3.79262 83.6314 4.32415 83.6318 4.87852V50.1791Z" fill="#45F882"/>
<path d="M44.6035 54.3618H41.8157C41.4461 54.3618 41.0915 54.5087 40.8301 54.7701C40.5687 55.0315 40.4219 55.386 40.4219 55.7557C40.4219 56.1254 40.5687 56.4799 40.8301 56.7413C41.0915 57.0027 41.4461 57.1495 41.8157 57.1495H44.6035C44.9731 57.1495 45.3277 57.0027 45.5891 56.7413C45.8505 56.4799 45.9973 56.1254 45.9973 55.7557C45.9973 55.386 45.8505 55.0315 45.5891 54.7701C45.3277 54.5087 44.9731 54.3618 44.6035 54.3618Z" fill="#45F882"/>
</svg>
