<svg width="42" height="74" viewBox="0 0 42 74" fill="none" xmlns="http://www.w3.org/2000/svg">
<path d="M35.9346 1H5.85329C3.17684 1 0.999756 3.17708 0.999756 5.85353V68.6274C0.999756 71.3037 3.17684 73.4809 5.85329 73.4809H35.9346C38.6109 73.4809 40.7882 71.3038 40.7882 68.6274V5.85353C40.7882 3.17708 38.6111 1 35.9346 1ZM38.9753 68.6274C38.9753 70.3044 37.6108 71.6689 35.9338 71.6689H5.85329C4.17628 71.6689 2.81178 70.3044 2.81178 68.6274V60.4398H38.9753V68.6274ZM38.9753 58.6278H2.81178V11.0431H38.9753V58.6278ZM38.9753 9.23108H2.81178V5.85353C2.81178 4.17653 4.17628 2.81202 5.85329 2.81202H35.9338C37.6108 2.81202 38.9753 4.17653 38.9753 5.85353V9.23108Z" fill="#45F882" stroke="#45F882" stroke-width="0.604008"/>
<path d="M20.894 62.4805C18.8374 62.4805 17.1639 64.1539 17.1639 66.2105C17.1639 68.2671 18.8374 69.9397 20.894 69.9397C22.9506 69.9397 24.624 68.2662 24.624 66.2096C24.624 64.1531 22.9506 62.4805 20.894 62.4805ZM20.894 68.1285C19.8367 68.1285 18.976 67.2678 18.976 66.2105C18.976 65.1532 19.8367 64.2925 20.894 64.2925C21.9513 64.2925 22.812 65.1532 22.812 66.2105C22.812 67.2678 21.9513 68.1285 20.894 68.1285Z" fill="#45F882" stroke="#45F882" stroke-width="0.604008"/>
</svg>
