<svg width="70" height="70" viewBox="0 0 70 70" fill="none" xmlns="http://www.w3.org/2000/svg">
<circle cx="35" cy="35" r="35" fill="#45F882"/>
<path d="M24.6321 53.8958C20.0144 53.8958 16.271 50.1524 16.271 45.5346V20.4513C16.271 18.1425 18.1427 16.2708 20.4516 16.2708H28.8127C31.1215 16.2708 32.9932 18.1425 32.9932 20.4513V45.5346C32.9932 50.1524 29.2498 53.8958 24.6321 53.8958ZM24.6321 53.8958H49.7154C52.0243 53.8958 53.896 52.0241 53.896 49.7152V41.3541C53.896 39.0452 52.0243 37.1735 49.7154 37.1735H44.8176M32.9933 25.3491L36.4565 21.8858C38.0891 20.2532 40.7361 20.2532 42.3687 21.8858L48.2809 27.798C49.9135 29.4307 49.9135 32.0776 48.2809 33.7102L30.5443 51.4468M24.6321 45.5346H24.653" stroke="black" stroke-width="3" stroke-linecap="round" stroke-linejoin="round"/>
</svg>
