<svg width="73" height="73" viewBox="0 0 73 73" fill="none" xmlns="http://www.w3.org/2000/svg">
<path d="M57.7582 34.7229C57.4579 34.7229 57.1698 34.8422 56.9574 35.0546C56.745 35.267 56.6257 35.555 56.6257 35.8554V66.8183C56.6247 67.7191 56.2665 68.5827 55.6295 69.2197C54.9926 69.8566 54.1289 70.2149 53.2282 70.2159H5.66257C4.76179 70.2149 3.89819 69.8566 3.26124 69.2197C2.62429 68.5827 2.26602 67.7191 2.26503 66.8183V5.66257C2.26602 4.76179 2.62429 3.89819 3.26124 3.26124C3.89819 2.62429 4.76179 2.26602 5.66257 2.26503H53.2282C54.1289 2.26602 54.9926 2.62429 55.6295 3.26124C56.2665 3.89819 56.6247 4.76179 56.6257 5.66257V13.9752C56.6257 14.2756 56.745 14.5636 56.9574 14.776C57.1698 14.9884 57.4579 15.1077 57.7582 15.1077C58.0586 15.1077 58.3466 14.9884 58.559 14.776C58.7714 14.5636 58.8907 14.2756 58.8907 13.9752V5.66257C58.889 4.16131 58.2918 2.72204 57.2303 1.66048C56.1687 0.598927 54.7294 0.00176836 53.2282 0L5.66257 0C4.16131 0.00176836 2.72204 0.598927 1.66048 1.66048C0.598927 2.72204 0.00176836 4.16131 0 5.66257L0 66.8183C0.00176836 68.3196 0.598927 69.7589 1.66048 70.8204C2.72204 71.882 4.16131 72.4791 5.66257 72.4809H53.2282C54.7294 72.4791 56.1687 71.882 57.2303 70.8204C58.2918 69.7589 58.889 68.3196 58.8907 66.8183V35.8554C58.8907 35.555 58.7714 35.267 58.559 35.0546C58.3466 34.8422 58.0586 34.7229 57.7582 34.7229Z" fill="#45F882"/>
<path d="M53.2284 19.6376C53.5288 19.6376 53.8168 19.5183 54.0292 19.3059C54.2416 19.0935 54.3609 18.8055 54.3609 18.5051V7.92744C54.3609 7.62707 54.2416 7.33902 54.0292 7.12663C53.8168 6.91424 53.5288 6.79492 53.2284 6.79492H5.66279C5.36243 6.79492 5.07437 6.91424 4.86198 7.12663C4.64959 7.33902 4.53027 7.62707 4.53027 7.92744V60.0231C4.53027 60.3235 4.64959 60.6115 4.86198 60.8239C5.07437 61.0363 5.36243 61.1556 5.66279 61.1556H53.2284C53.5288 61.1556 53.8168 61.0363 54.0292 60.8239C54.2416 60.6115 54.3609 60.3235 54.3609 60.0231V40.374C54.3609 40.0736 54.2416 39.7856 54.0292 39.5732C53.8168 39.3608 53.5288 39.2415 53.2284 39.2415C52.928 39.2415 52.64 39.3608 52.4276 39.5732C52.2152 39.7856 52.0959 40.0736 52.0959 40.374V58.8906H6.7953V9.05995H52.0959V18.5051C52.0959 18.8055 52.2152 19.0935 52.4276 19.3059C52.64 19.5183 52.928 19.6376 53.2284 19.6376Z" fill="#45F882"/>
<path d="M31.7102 5.66249C32.0105 5.66249 32.2986 5.54317 32.511 5.33078C32.7234 5.1184 32.8427 4.83034 32.8427 4.52998C32.8427 4.22961 32.7234 3.94155 32.511 3.72917C32.2986 3.51678 32.0105 3.39746 31.7102 3.39746H27.1801C26.8798 3.39746 26.5917 3.51678 26.3793 3.72917C26.1669 3.94155 26.0476 4.22961 26.0476 4.52998C26.0476 4.83034 26.1669 5.1184 26.3793 5.33078C26.5917 5.54317 26.8798 5.66249 27.1801 5.66249H31.7102Z" fill="#45F882"/>
<path d="M26.0476 65.6861C26.0476 66.3581 26.2469 67.015 26.6202 67.5737C26.9935 68.1324 27.5241 68.5679 28.145 68.825C28.7658 69.0822 29.4489 69.1495 30.108 69.0184C30.767 68.8873 31.3724 68.5637 31.8476 68.0885C32.3227 67.6134 32.6463 67.008 32.7774 66.3489C32.9085 65.6899 32.8412 65.0068 32.5841 64.3859C32.3269 63.7651 31.8914 63.2345 31.3327 62.8612C30.774 62.4878 30.1171 62.2886 29.4452 62.2886C28.5444 62.2896 27.6808 62.6478 27.0438 63.2848C26.4069 63.9217 26.0486 64.7853 26.0476 65.6861ZM30.5777 65.6861C30.5777 65.9101 30.5112 66.1291 30.3868 66.3153C30.2624 66.5015 30.0855 66.6467 29.8785 66.7324C29.6716 66.8181 29.4439 66.8406 29.2242 66.7969C29.0045 66.7532 28.8027 66.6453 28.6443 66.4869C28.486 66.3285 28.3781 66.1267 28.3344 65.9071C28.2907 65.6874 28.3131 65.4597 28.3988 65.2527C28.4846 65.0458 28.6297 64.8689 28.816 64.7445C29.0022 64.62 29.2212 64.5536 29.4452 64.5536C29.7454 64.5539 30.0333 64.6733 30.2457 64.8856C30.458 65.0979 30.5774 65.3858 30.5777 65.6861Z" fill="#45F882"/>
<path d="M71.2107 11.4638C70.3969 10.6521 69.2944 10.1963 68.145 10.1963C66.9956 10.1963 65.8931 10.6521 65.0793 11.4638L33.1747 43.3688C33.0166 43.5268 32.9088 43.728 32.865 43.9472L31.7325 49.6098C31.6996 49.7741 31.7036 49.9437 31.7441 50.1062C31.7847 50.2688 31.8608 50.4204 31.9671 50.55C32.0733 50.6796 32.2069 50.784 32.3584 50.8557C32.5099 50.9274 32.6753 50.9646 32.8429 50.9646C32.9176 50.9642 32.992 50.9566 33.0652 50.942L38.7278 49.8094C38.9469 49.7654 39.1481 49.6576 39.3062 49.4997L71.2107 17.5953C71.6134 17.1928 71.9328 16.7148 72.1508 16.1888C72.3687 15.6627 72.4809 15.0989 72.4809 14.5295C72.4809 13.9601 72.3687 13.3963 72.1508 12.8703C71.9328 12.3442 71.6134 11.8663 71.2107 11.4638ZM69.6093 15.9938L37.9469 47.6566L34.2868 48.3888L35.0189 44.7281L66.6806 13.0652C66.8729 12.8729 67.1012 12.7204 67.3525 12.6163C67.6037 12.5122 67.873 12.4587 68.1449 12.4587C68.4169 12.4587 68.6862 12.5122 68.9374 12.6163C69.1887 12.7204 69.417 12.8729 69.6093 13.0652C69.8016 13.2575 69.9541 13.4858 70.0582 13.737C70.1623 13.9883 70.2158 14.2575 70.2158 14.5295C70.2158 14.8014 70.1623 15.0707 70.0582 15.322C69.9541 15.5732 69.8016 15.8015 69.6093 15.9938Z" fill="#45F882"/>
</svg>
