<svg width="70" height="70" viewBox="0 0 70 70" fill="none" xmlns="http://www.w3.org/2000/svg">
<circle cx="35" cy="35" r="35" fill="#45F882"/>
<path d="M18.3611 20.4514C18.3611 19.2969 19.2969 18.3611 20.4514 18.3611H49.7153C50.8697 18.3611 51.8055 19.2969 51.8055 20.4514V24.6319C51.8055 25.7863 50.8697 26.7222 49.7153 26.7222H20.4514C19.2969 26.7222 18.3611 25.7863 18.3611 24.6319V20.4514Z" stroke="black" stroke-width="3" stroke-linecap="round" stroke-linejoin="round"/>
<path d="M18.3611 37.1736C18.3611 36.0192 19.2969 35.0833 20.4514 35.0833H32.993C34.1475 35.0833 35.0833 36.0192 35.0833 37.1736V49.7153C35.0833 50.8697 34.1475 51.8055 32.993 51.8055H20.4514C19.2969 51.8055 18.3611 50.8697 18.3611 49.7153V37.1736Z" stroke="black" stroke-width="3" stroke-linecap="round" stroke-linejoin="round"/>
<path d="M43.4444 37.1736C43.4444 36.0192 44.3803 35.0833 45.5347 35.0833H49.7153C50.8697 35.0833 51.8055 36.0192 51.8055 37.1736V49.7153C51.8055 50.8697 50.8697 51.8055 49.7153 51.8055H45.5347C44.3803 51.8055 43.4444 50.8697 43.4444 49.7153V37.1736Z" stroke="black" stroke-width="3" stroke-linecap="round" stroke-linejoin="round"/>
</svg>
