<svg width="70" height="70" viewBox="0 0 70 70" fill="none" xmlns="http://www.w3.org/2000/svg">
<circle cx="35" cy="35" r="35" fill="#45F882"/>
<path d="M20.4516 49.7153C18.1427 49.7153 16.271 47.8436 16.271 45.5348V24.632C16.271 22.3231 18.1427 20.4514 20.4516 20.4514H28.8127L32.9932 24.632H41.3543C43.6632 24.632 45.5349 26.5037 45.5349 28.8125V30.9028M20.4516 49.7153H49.7154C52.0243 49.7153 53.896 47.8436 53.896 45.5348V35.0834C53.896 32.7745 52.0243 30.9028 49.7154 30.9028H28.8127C26.5038 30.9028 24.6321 32.7745 24.6321 35.0834V45.5348C24.6321 47.8436 22.7604 49.7153 20.4516 49.7153Z" stroke="black" stroke-width="3" stroke-linecap="round"/>
</svg>
